<?xml version="1.0" encoding="UTF-8"?>
<svg xmlns="http://www.w3.org/2000/svg" xmlns:xlink="http://www.w3.org/1999/xlink" width="513" height="647"><defs><style type="text/css"><![CDATA[@import url("https://atlas.mindmup.com/_resources/21/fonts.css")]]></style></defs><rect width="100%" height="100%" fill="#FFFFFF"/><g transform="translate(221,54)" style="fill:none;"><g transform="translate(-96,-24)"><path d="M132,105v42l0,55v1" stroke="#707070" stroke-width="3" stroke-linecap="round"/></g><g transform="translate(-191,180)"><path d="M227,113v34q0,15 -15,15h-131q-15,0 -15,15v34" stroke="#707070" stroke-width="3" stroke-linecap="round"/></g><g transform="translate(-96,180)"><path d="M132,113v42l4,55v1" stroke="#707070" stroke-width="3" stroke-linecap="round"/></g><g transform="translate(-96,180)"><path d="M132,113v34q0,15 15,15h135q15,0 15,15v34" stroke="#707070" stroke-width="3" stroke-linecap="round"/></g><g transform="translate(-79,-24)"><rect x="0" y="0" width="229" height="104" border="1" rx="10" ry="10" style="fill:#FFFFFF;stroke:#707070;stroke-width:1px;"/><image xlink:href="image1.png" x="6" y="6" width="217" height="60"/><text font-family="NotoSerif, serif" font-size="18" font-weight="bold" lengthAdjust="spacingAndGlyphs" style="fill:#002169;"><tspan y="89" x="115" text-anchor="middle" textLength="193">Customs Department</tspan></text></g><g transform="translate(-96,180)"><rect x="0" y="0" width="263" height="112" border="1" rx="10" ry="10" style="fill:#0053b1;stroke:#707070;stroke-width:1px;"/><image xlink:href="image2.jpg" x="6" y="6" width="100" height="100"/><text font-family="NotoSerif, serif" font-size="15" font-weight="bold" lengthAdjust="spacingAndGlyphs" style="fill:#FFFFFF;"><tspan y="37" x="184" text-anchor="middle" textLength="138">Francisco Noriega</tspan><tspan y="60" x="184" text-anchor="middle" textLength="129">US-MEX Customs</tspan><tspan y="83" x="184" text-anchor="middle" textLength="70">Principal</tspan></text></g><g transform="translate(-191,392)"><rect x="0" y="0" width="132" height="153" border="1" rx="10" ry="10" style="fill:#002855;stroke:#707070;stroke-width:1px;"/><image xlink:href="image3.jpg" x="6" y="6" width="120" height="100"/><text font-family="NotoSerif, serif" font-size="12" font-weight="bold" lengthAdjust="spacingAndGlyphs" style="fill:#FFFFFF;"><tspan y="123" x="66" text-anchor="middle" textLength="97">Yessica Robledo</tspan><tspan y="141" x="66" text-anchor="middle" textLength="111">Customs Assistant</tspan></text></g><g transform="translate(-39,392)"><rect x="0" y="0" width="158" height="171" border="1" rx="10" ry="10" style="fill:#002855;stroke:#707070;stroke-width:1px;"/><image xlink:href="image4.jpg" x="50" y="6" width="59" height="100"/><text font-family="NotoSerif, serif" font-size="12" font-weight="bold" lengthAdjust="spacingAndGlyphs" style="fill:#FFFFFF;"><tspan y="123" x="79" text-anchor="middle" textLength="100">Rafael Armando</tspan><tspan y="141" x="79" text-anchor="middle" textLength="63">Rodriguez</tspan><tspan y="159" x="79" text-anchor="middle" textLength="111">Customs Assistant</tspan></text></g><g transform="translate(139,392)"><rect x="0" y="0" width="123" height="153" border="1" rx="10" ry="10" style="fill:#002855;stroke:#707070;stroke-width:1px;"/><image xlink:href="image5.jpg" x="28" y="6" width="68" height="100"/><text font-family="NotoSerif, serif" font-size="12" font-weight="bold" lengthAdjust="spacingAndGlyphs" style="fill:#FFFFFF;"><tspan y="123" x="62" text-anchor="middle" textLength="69">Crisel Rede</tspan><tspan y="141" x="62" text-anchor="middle" textLength="111">Customs Assistant</tspan></text></g></g></svg>